<?xml version="1.0" standalone="no"?><!DOCTYPE svg PUBLIC "-//W3C//DTD SVG 1.1//EN" "http://www.w3.org/Graphics/SVG/1.1/DTD/svg11.dtd"><svg t="1540731828877" class="icon" style="" viewBox="0 0 1024 1024" version="1.1" xmlns="http://www.w3.org/2000/svg" p-id="2004" xmlns:xlink="http://www.w3.org/1999/xlink" width="200" height="200"><defs><style type="text/css"></style></defs><path d="M512 128a384 384 0 1 0 0 768 384 384 0 0 0 0-768zM42.666667 512C42.666667 252.8 252.8 42.666667 512 42.666667s469.333333 210.133333 469.333333 469.333333-210.133333 469.333333-469.333333 469.333333S42.666667 771.2 42.666667 512z" fill="#ff464e" p-id="2005"></path><path d="M512 213.333333a42.666667 42.666667 0 0 1 42.666667 42.666667v213.333333h213.333333a42.666667 42.666667 0 0 1 0 85.333334h-256a42.666667 42.666667 0 0 1-42.666667-42.666667V256a42.666667 42.666667 0 0 1 42.666667-42.666667z" fill="#ff464e" p-id="2006"></path></svg>