<?xml version="1.0" standalone="no"?><!DOCTYPE svg PUBLIC "-//W3C//DTD SVG 1.1//EN" "http://www.w3.org/Graphics/SVG/1.1/DTD/svg11.dtd"><svg t="1540732334547" class="icon" style="" viewBox="0 0 1024 1024" version="1.1" xmlns="http://www.w3.org/2000/svg" p-id="1886" data-spm-anchor-id="a313x.7781069.0.i0" xmlns:xlink="http://www.w3.org/1999/xlink" width="200" height="200"><defs><style type="text/css"></style></defs><path d="M948.032 902.784l-206.976-206.976C797.696 628.928 832 542.528 832 448c0-212.064-171.936-384-384-384S64 235.936 64 448s171.936 384 384 384c94.528 0 180.928-34.304 247.808-90.912l206.976 206.976c14.016 14.016 35.488 15.232 48 2.72C963.264 938.272 962.048 916.8 948.032 902.784zM448 768C271.264 768 128 624.736 128 448S271.264 128 448 128s320 143.264 320 320S624.736 768 448 768z" p-id="1887" data-spm-anchor-id="a313x.7781069.0.i1" class="" fill="#ff464e"></path></svg>